<?xml version="1.0" standalone="no"?><!DOCTYPE svg PUBLIC "-//W3C//DTD SVG 1.1//EN" "http://www.w3.org/Graphics/SVG/1.1/DTD/svg11.dtd"><svg t="1612231966139" class="icon" viewBox="0 0 1121 1024" version="1.1" xmlns="http://www.w3.org/2000/svg" p-id="1782" width="19.705078125" height="18" xmlns:xlink="http://www.w3.org/1999/xlink"><defs><style type="text/css"></style></defs><path d="M555.885714 906.971429c-34.133333 0-58.514286-29.257143-58.514285-58.514286 0-34.133333 24.380952-58.514286 58.514285-58.514286s58.514286 29.257143 58.514286 58.514286-24.380952 58.514286-58.514286 58.514286z m-63.390476-585.142858c0-34.133333 29.257143-63.390476 58.514286-63.390476 34.133333 0 58.514286 29.257143 58.514286 63.390476v336.457143c0 34.133333-29.257143 63.390476-58.514286 63.390476-34.133333 0-58.514286-29.257143-58.514286-63.390476V321.828571z m609.52381 580.266667L633.904762 48.761905c-14.628571-29.257143-43.885714-48.761905-73.142857-48.761905-34.133333 0-63.390476 19.504762-78.019048 53.638095L14.628571 897.219048c-9.752381 14.628571-14.628571 29.257143-14.628571 48.761904 0 43.885714 34.133333 78.019048 78.019048 78.019048h980.114285c34.133333-4.87619 63.390476-39.009524 63.390477-78.019048-4.87619-14.628571-9.752381-34.133333-19.504762-43.885714z" p-id="1783" fill="#e0620d"></path></svg>