<svg t="1613636008877" class="icon" viewBox="0 0 1024 1024" version="1.1" xmlns="http://www.w3.org/2000/svg" p-id="40184" width="28" height="28"><path d="M744.051968 75.33513C573.599992 75.33513 573.599992 0.00314 405.061015 0.00314a354.951951 354.951951 0 0 0-173.645977 50.433993v548.386925a360.058951 360.058951 0 0 1 174.283977-47.879993c167.899977 0 167.899977 73.41599 338.352953 73.41599a510.72193 510.72193 0 0 0 212.587971-58.732992V17.240138a515.828929 515.828929 0 0 1-212.587971 58.094992zM126.717053 0.00314a63.839991 63.839991 0 0 0-63.839992 54.902992V963.990008a60.009992 60.009992 0 0 0 120.019984 0V54.906132A60.009992 60.009992 0 0 0 126.717053 0.00314z" p-id="40185" fill="#515151"></path></svg>
