<svg t="1613633065303" class="icon" viewBox="0 0 1024 1024" version="1.1" xmlns="http://www.w3.org/2000/svg" p-id="30606" width="24" height="24"><path d="M908.2 357h-125c-23.4 0-40.2 17-40.2 40.2s17 40.2 40.2 40.2h127.6c20 0 36.2 16.2 36.2 36.2v382.8c0 20-16.2 36.2-36.2 36.2H425.8c-20 0-36.2-16.2-36.2-36.2V473.8c0-20 16.2-36.2 36.2-36.2H538c23.4 0 40.2-17 40.2-40.2s-17-40.2-40.2-40.2h-114.8c-64.4 0-116.8 52.4-116.8 116.8v382.8c0 64.4 52.4 116.8 116.8 116.8H908c64.4 0 116.8-52.4 116.8-116.8V473.8c0.2-64.4-52.2-116.8-116.6-116.8z" p-id="30607" fill="#515151"></path><path d="M231.8 663.2H117c-20 0-36.2-16.2-36.2-36.2V218.6c0-20 16.2-36.2 36.2-36.2h484.8c20 0 36.2 16.2 36.2 36.2v408.4c0 20-16.2 36.2-36.2 36.2h-125c-23.4 0-40.2 17-40.2 40.2s17 40.2 40.2 40.2h127.6c64.4 0 116.8-52.4 116.8-116.8V218.6c0-64.4-52.4-116.8-116.8-116.8H119.6c-64.4 0-116.8 52.4-116.8 116.8v408.4c0 64.4 52.4 116.8 116.8 116.8h112.2c23.4 0 40.2-17 40.2-40.2s-16.8-40.4-40.2-40.4z" p-id="30608" fill="#515151"></path></svg>
