<svg t="1613632166199" class="icon" viewBox="0 0 1024 1024" version="1.1" xmlns="http://www.w3.org/2000/svg" p-id="15564" width="24" height="24"><path d="M684.59470531 540.65785346c73.23406164 0 132.65442188-59.37441637 132.65442189-132.59535201 0-73.29532048-59.42036024-132.67848782-132.65442189-132.67848781-73.30625945 0-132.65660986 59.38316734-132.65660985 132.67848781C551.93809544 481.2834371 611.28844586 540.65785346 684.59470531 540.65785346z" fill="#515151" p-id="15565"></path><path d="M684.59470531 580.88036128c-103.740597 0-187.88735243 84.07674658-187.88735243 187.86328746l0 161.26414346 375.72219895 0 0-161.26414346C872.43173885 664.95710785 788.33311432 580.88036128 684.59470531 580.88036128z" fill="#515151" p-id="15566"></path><path d="M889.26459053 626.48483116c132.33062862-117.72494699 144.17532035-320.33831074 26.53132216-452.69956829-117.6724401-132.29343668-320.3580007-144.18625933-452.66018837-26.47006429-126.6839451 112.72147307-142.60448782 303.10071797-40.45660129 435.32195681l-77.9881281 69.27635141-29.59203939-33.24345933L33.25698647 869.27475885l88.75642819 99.92728044 281.83978013-250.7228521-29.61610532-33.29596717 77.98594107-69.37261416C571.534125 732.73263462 762.55876748 739.12535543 889.26459053 626.48483116zM483.38590244 170.07258411c119.521122-106.33969122 303.28667955-95.53419919 409.57823988 24.04380568 106.29374733 119.51018303 95.57139209 303.21448272-23.9519179 409.56948793-119.56268992 106.33750323-303.28449158 95.52326021-409.60230485-24.00004977C353.0964813 460.14063999 363.84290248 276.39914837 483.38590244 170.07258411z" fill="#515151" p-id="15567"></path></svg>
