<svg t="1613711718878" class="icon" viewBox="0 0 1024 1024" version="1.1" xmlns="http://www.w3.org/2000/svg" p-id="12235" width="24" height="24"><path d="M512 1024A512 512 0 1 1 512 0a512 512 0 0 1 0 1024z m65.92-578.88H288a64 64 0 0 0-64 64v5.76a64 64 0 0 0 64 64h287.616L499.84 654.72a64 64 0 0 0 0 90.496l1.728 1.792a64 64 0 0 0 90.496 0l193.216-193.216a63.808 63.808 0 0 0 0-90.496l-186.24-186.24a64 64 0 0 0-90.56 0l-4.032 4.032a64 64 0 0 0 0 90.496l73.536 73.6z" p-id="12236" fill="#00CED1"></path></svg>
