<!--<svg t="1613632794388" class="icon" viewBox="0 0 1024 1024" version="1.1" xmlns="http://www.w3.org/2000/svg" p-id="28427" width="24" height="24"><path d="M728 103.583H145.25c-46.35 1.35-83.25 39.15-83.25 85.5v675.45c0 46.35 36.9 84.15 83.25 85.95H467.9c-47.7-60.3-73.35-135-73.35-211.95-1.8-185.4 147.15-337.05 332.55-338.85h0.45c27.9 0 56.25 4.05 83.25 11.25v-222.75c-0.45-45.9-36.9-83.25-82.8-84.6z m-395.55 391.95h-166.5v-77.85H332.9v77.85z m374.85-198.45H165.95v-75.6h540.9l0.45 75.6z" p-id="28428" fill="#515151"></path><path d="M727.55 486.533c-131.85-2.25-240.3 103.05-242.1 234.45s103.05 240.3 234.45 242.1 240.3-103.05 242.1-234.45v-4.05c1.35-130.05-103.5-237.15-234.45-238.05z m-42.75 380.25a17.111 17.111 0 0 1-24.3 0l-99.9-98.1c-5.85-5.85-5.85-14.85 0-20.7l21.15-20.7c5.85-5.85 15.3-5.85 21.15 0l68.4 67.5 195.3-198c5.85-5.85 14.85-5.85 20.7 0l20.7 21.15c5.85 5.85 5.85 15.3 0 21.15l-223.2 227.7z" p-id="28429" fill="#515151"></path></svg>-->

<svg t="1613632888000" class="icon" viewBox="0 0 1024 1024" version="1.1" xmlns="http://www.w3.org/2000/svg" p-id="29647" width="24" height="24"><path d="M659.911111 483.555556l-193.422222 193.422222-113.777778-113.777778c-17.066667-17.066667-45.511111-17.066667-62.577778 0-17.066667 17.066667-17.066667 45.511111 0 62.577778l136.533334 136.533333 11.377777 11.377778c11.377778 11.377778 34.133333 11.377778 51.2 0l227.555556-227.555556c17.066667-17.066667 17.066667-45.511111 0-62.577777-11.377778-17.066667-39.822222-17.066667-56.888889 0z" p-id="29648" fill="#515151"></path><path d="M625.777778 273.066667v-273.066667h-472.177778c-39.822222 0-68.266667 28.444444-68.266667 68.266667v881.777777c0 39.822222 28.444444 68.266667 68.266667 68.266667h711.111111c39.822222 0 68.266667-28.444444 68.266667-68.266667v-676.977777h-307.2z m-455.111111 665.6v-853.333334h369.777777v199.111111c0 39.822222 28.444444 68.266667 68.266667 68.266667h244.622222v585.955556h-682.666666z" p-id="29649" fill="#515151"></path><path d="M676.977778 22.755556c17.066667-17.066667 45.511111-17.066667 62.577778 0l142.222222 142.222222c17.066667 17.066667 17.066667 45.511111 0 62.577778-17.066667 17.066667-45.511111 17.066667-62.577778 0l-142.222222-142.222223c-17.066667-22.755556-17.066667-51.2 0-62.577777z" p-id="29650" fill="#515151"></path></svg>
